<svg width="1000" height="1000" viewBox="0 0 1000 1000" fill="none" xmlns="http://www.w3.org/2000/svg">
<g clip-path="url(#clip0_54_1249)">
<rect width="1000" height="1000" fill="black"/>
<path fill-rule="evenodd" clip-rule="evenodd" d="M53.5 504C53.5 257.957 252.957 58.5 499 58.5C745.043 58.5 944.5 257.957 944.5 504C944.5 589.57 920.379 669.492 878.569 737.354L876.208 741.185L883.871 745.906L886.231 742.075C928.891 672.834 953.5 591.284 953.5 504C953.5 252.987 750.013 49.5 499 49.5C247.987 49.5 44.5 252.987 44.5 504C44.5 591.284 69.1087 672.834 111.769 742.075L114.129 745.906L121.792 741.185L119.431 737.354C77.6205 669.492 53.5 589.57 53.5 504ZM530.852 84H469.149V145.702H479.046V259.465H439.712V157.015L455.779 157.015V115.88H414.645V157.015L430.712 157.015V259.465H406.805V220.772H421.844V179.638H380.709V220.772H397.805V259.465H356.416V202.263V197.763H355.387H350.887H347.416H324.535V177.581H340.603V136.446H299.468V177.581H315.535V197.763H278.901H278.9V181.695H237.766V222.83H278.9V206.763H278.901H315.535V288.773H283.401V280.418H299.468V239.283H258.333V280.418H274.401V288.773H208.33V284.532V273.22H224.396V232.085H183.262V273.22H199.33V284.532L199.33 288.773L199.33 289.032L199.33 297.773H203.83H274.401V327.337H261.419H257.305V311.269H216.17V352.403H257.305V336.337H261.419H274.401V366.414H186.654L186.652 366.334L182.193 366.414H177.733V366.494L177.654 366.495L177.733 370.939V375.414H177.813L178.313 403.437H148.299H147.655L147.655 372.972H163.723V331.837H122.588V372.972H138.655L138.655 407.936V412.436L143.799 412.437L147.655 412.436L148.299 412.437H178.474L178.681 424.003H127.731V407.937H86.5967V449.071H127.731V433.003H183.262H187.762V431.885L187.823 431.884L187.762 428.495V424.003H187.682L187.476 412.437H274.401V450.741H213.085H208.585V459.741H213.085H274.401V471.309H212.057H208.33V455.241V450.741H199.33V455.241V491.876H106.135V475.809H65V516.943H106.135V500.876H199.33V555.635H134.93V539.567H93.7949V580.702H134.93V564.635H199.33H203.829H208.329H208.33V560.135V500.876H274.401V521.698H237.766H233.266V525.812V530.312V530.698V629H170.999H167.135V613H126V654.135H167.135V638H170.999H233.266V663.999V668.499H233.266V676.755H237.766H339.703V702.691H335.46H283.014V686.624H241.879V727.759H283.014V711.691H335.46H339.96V711.69H348.703V707.19V676.755H371.454H373.096V686.624V691.124L381.351 691.124H385.851H413.23V735.6H386.879V719.531H345.744V760.666H386.879V744.6H413.23V912.5H347.561H343.135V895H302V936.135H343.135V921.5H347.561H417.561H422.061V921.124H422.23V916.624V744.6H440.674L441.005 954.5H414H409.5V963.5H414H441.02V963.507L444.851 963.5H445.269H449.351V963.494L450.02 963.492L450.013 958.992L449.674 744.6H479.046V1010.56V1015.06H488.046V1010.56V744.6H511.954V1010.56V1015.06H520.954V1010.56V744.6H547.945V959V963.5H548.5H553H556.945H583.851H588V979.135H629.135V938H588V954.5H583.851H556.945V744.6H577.77V916V920.5H578.5H583H586.77H653H657V936.135H698.135V895H657V911.5H653H586.77V744.6H615.178V760.666H656.312V719.531H615.178V735.6H586.77V691.124H614.148H618.648L626.903 691.124V686.624V677.755H651.787V707.187V711.687H657.982V711.691H662.482H713.9V727.759H755.035V686.624H713.9V702.691H662.482H660.787V677.755H757.093H757.734H761.593H766.734V673.255V638.5H827H831V654.135H872.135V613H831V629.5H827H766.734V526.198V521.698H766.733H762.233H757.734H723.541V500.876H791.67V555.635V560.135V564.635H796.17H800.67H865.07V580.702H906.205V539.567H865.07V555.635H800.67V500.876H893.865V516.943H935V475.809H893.865V491.876H800.67V455.241V450.741H791.67V455.241V471.309H787.943H723.541V459.741H786.914H791.414V450.741H786.914H723.541V412.437H811.209V425.032V427.474V431.974V434.032H815.709H871.241H872.27V450.126H913.404V407.937H872.27V425.032H871.241H820.209V412.437H843.474L845.23 412.436L847.974 412.437L854.23 412.436V407.936V372.972H873.298V331.837H832.163V372.972H845.23V403.437H843.474H820.209V375.414H820.214V366.414H820.209H815.714H811.209H723.541V336.337H736.524H741.024V327.337H736.524H723.541V297.773H795.143H799.643V288.773L799.643 284.532V273.22H815.709V232.085H774.574V273.22H790.643V284.532V288.773H723.541V280.418H739.609V239.283H698.475V280.418H714.541V288.773H684.464V206.763H718.014V222.83H759.148V181.695H718.014V197.763H684.464V177.581H700.531V136.446H659.396V177.581H675.464V197.763H652.585H648.085H643.585V202.263V206.763V263.965V268.465H652.585V263.965V206.763H675.464V288.773H600.139V268.465H638.83H643.33L643.33 259.465H638.83H600.139V220.772H616.205V179.638H575.07V220.772H591.139V259.465H567.23V162.156V157.656H558.23V162.156V259.465H520.954V145.702H530.852V84ZM511.954 145.702H488.046V259.465L511.954 259.465V145.702ZM585.353 115.88H544.219V157.015H585.353V115.88ZM651.787 668.755H626.903V638.5H651.787V668.755ZM651.787 629.5H626.903V601.656H651.787V629.5ZM617.903 629.5V601.656H544.219H539.719V601.655H533.55V597.155V530.698H520.954V735.6H547.945V634V629.5H548.5H553H556.945H617.903ZM651.787 592.656H626.903V562.578L651.787 562.578V592.656ZM617.903 592.656V562.578L595.639 562.578H591.139V562.577V558.077V553.578V530.698H542.55V592.656H544.219H617.903ZM651.787 553.578H626.903V530.698H651.787V553.578ZM617.903 553.578V530.698H600.139V553.578H617.903ZM651.787 521.698H626.903V480.309H714.541V491.876H660.787V491.871H651.787V496.371V521.698ZM617.903 521.698V480.309H600.139V521.698H617.903ZM714.541 471.309H626.903V412.437H675.464V455.241V459.741H684.464L714.541 459.741V471.309ZM617.903 471.309V412.437H600.139V471.309H617.903ZM675.464 403.437H626.903V375.414H675.464V403.437ZM617.903 403.437V375.414H600.139V403.437H617.903ZM675.464 366.414H626.903V336.337H675.464V366.414ZM617.903 327.337H618.903H623.403H626.903H675.464V297.773H600.139V366.414H617.903V331.837V327.337ZM617.903 682.124V638.5H556.945V735.6H577.77V686V681.5H586.77V682.124H614.148H617.903ZM714.541 327.337V297.773H684.464V327.337H714.541ZM684.464 336.337H714.541V366.414H684.464V336.337ZM567.23 268.465H591.139V288.773H567.23V268.465ZM567.23 297.773H591.139V366.414H567.23V297.773ZM567.23 375.414H591.139V403.437H567.23V375.414ZM565.814 412.437H591.139V471.309H542.55V375.414H558.23V407.936V412.436L561.314 412.437H565.814ZM542.55 480.309H591.139V521.698H542.55V480.309ZM397.805 268.465H353.972H349.472L347.416 268.465V263.965V206.763H324.535V288.773H397.805V268.465ZM406.805 288.773V268.465H430.712V288.773H406.805ZM397.805 297.773H324.535V327.337H373.096H374.539H379.039H382.096V331.837V366.414H397.805V297.773ZM406.805 366.414V297.773H430.712V366.414H406.805ZM397.805 375.414H382.096V403.437H397.805V375.414ZM406.805 403.437V375.414H430.712V407.936V412.436H439.712V407.936V375.414H455.393V471.309H406.805V412.437H425.958H430.458V403.437H425.958H406.805ZM397.805 412.437H382.096V471.309H397.805V412.437ZM397.805 480.309H382.096V521.698H397.805V480.309ZM397.805 530.698H382.096V555.635H397.805V530.698ZM406.805 562.577V564.635H402.305H382.096V592.656H452.695H455.393V530.698H406.805V555.635V558.077V562.577ZM406.805 521.698V480.309H455.393V521.698H406.805ZM385.851 682.124H382.096V638H440.506L440.66 735.6H422.23V686.624V682.124H421.202H416.702H413.23H385.851ZM445.001 629H382.096V601.656H452.695H457.195V601.655H464.393V597.155V530.698H479.046V735.6H449.66L449.501 634.535V629H445.001ZM373.096 629V601.656H348.703V629H373.096ZM373.096 592.656V564.635H348.703V592.656H373.096ZM373.096 530.698V555.635H348.703V530.698H373.096ZM373.096 521.698V480.309H283.401V491.876H339.703V491.875H348.703V496.375V521.698H373.096ZM373.096 471.309V412.437H324.535V455.241V459.741H315.535V459.741H283.401V471.309H373.096ZM373.096 375.414V403.437H324.535V375.414H373.096ZM373.096 366.414V336.337H324.535V366.414H373.096ZM373.096 667.755V638H348.703V667.755H371.454H373.096ZM757.734 638.5V668.755H757.093H660.787V638.5H757.734ZM242.266 667.755H339.703V638H242.266V663.999V667.755ZM488.046 735.6H511.954V530.698H488.046V735.6ZM703.616 601.656H660.787V629.5H757.734V530.698H723.541V553.578H723.543V562.578L723.541 562.578H714.541L660.787 562.578V592.656H703.616H707.73V576.588H748.865V617.723H707.73V601.656H703.616ZM339.703 564.635V592.656H298.44H294.326V576.588H253.191V617.723H294.326V601.656H298.44H339.703V629H242.266V530.698H274.401V555.635H274.4V564.635H278.9H339.703ZM339.703 555.635V530.698H283.401V555.635H339.703ZM714.541 375.414H684.464V403.437H714.541V375.414ZM558.23 297.773V366.414L542.55 366.414L538.054 366.414H533.554L533.55 366.414V370.914V471.309H520.954V297.773H558.23ZM811.209 375.414H723.541V403.437H811.209V375.414ZM274.401 375.414H186.814L187.315 403.437H274.401V375.414ZM283.401 375.414H315.535V403.437H283.401V375.414ZM315.535 366.414H283.401V336.337H315.535V366.414ZM439.712 366.414H455.393H459.893H464.393V370.914V375.414V471.309H479.046V297.773H439.712V366.414ZM283.401 327.337H315.535V297.773H283.401V327.337ZM660.787 530.698V553.578H714.541V530.698H660.787ZM660.787 521.698V500.876H714.541V521.698H660.787ZM791.67 480.309V491.876H723.541V480.309H787.943H791.67ZM339.703 500.876V521.698H283.401V500.876H339.703ZM208.33 491.876H274.401V480.309H212.057H208.33V491.876ZM714.541 450.741V412.437H684.464V450.741H714.541ZM533.55 480.309V521.698H520.954V480.309H533.55ZM511.954 480.309V521.698H488.046V480.309H511.954ZM479.046 480.309V521.698H464.393V480.309H479.046ZM315.535 450.741H283.401V412.437H315.535V450.741ZM558.23 268.465V288.773H520.954V268.465H558.23ZM511.954 268.465V288.773H488.046V268.465L511.954 268.465ZM511.954 297.773H488.046V471.309H511.954V297.773ZM479.046 268.465V288.773H439.712V268.465H479.046ZM741.667 311.269H782.802V352.403H741.667V311.269ZM409.135 938H368V979.135H409.135V938Z" fill="url(#paint0_linear_54_1249)"/>
</g>
<defs>
<linearGradient id="paint0_linear_54_1249" x1="499" y1="49.5" x2="499" y2="1015.06" gradientUnits="userSpaceOnUse">
<stop stop-color="#59EFDD"/>
<stop offset="1" stop-color="#59EFDD" stop-opacity="0.6"/>
</linearGradient>
<clipPath id="clip0_54_1249">
<rect width="1000" height="1000" fill="white"/>
</clipPath>
</defs>
</svg>
